                                                                                                   
                                                                                                  
                                                                                                   
PPPPPPPPPPPPPPPPP   222222222222222   PPPPPPPPPPPPPPPPP  DDDDDDDDDDDDD     LLLLLLLLLLL             
P::::::::::::::::P 2::::::MAKE!::::22 P:::::::SAVE!::::P D::::SHARE!::DDD  L:::::::::L             
P::::::PPPPPP:::::P2::::::222222:::::2P::::::PPPPPP:::::PD:::::::::::::::DDL:::::::::L             
PP:::::P     P:::::2222222     2:::::2PP:::::P     P:::::DDD:::::DDDDD:::::LL:::::::LL             
  P::::P     P:::::P           2:::::2  P::::P     P:::::P D:::::D    D:::::DL:::::L               
  P::::P     P:::::P           2:::::2  P::::P     P:::::P D:::::D     D:::::L:::::L               
  P::::PPPPPP:::::P         2222::::2   P::::PPPPPP:::::P  D:::::D     D:::::L:::::L               
  P:::::::::::::PP     22222::::::22    P:::::::::::::PP   D:::::D     D:::::L:::::L               
  P::::PPPPPPPPP     22::::::::222      P::::PPPPPPPPP     D:::::D     D:::::L:::::L               
  P::::P            2:::::22222         P::::P             D:::::D     D:::::L:::::L               
  P::::P           2:::::2              P::::P             D:::::D     D:::::L:::::L               
  P::::P           2:::::2              P::::P             D:::::D    D:::::DL:::::L         LLLLLL
PP::::::PP         2:::::2       22222PP::::::PP         DDD:::::DDDDD:::::LL:::::::LLLLLLLLL:::::L
P::::::::P         2::::::2222222:::::P::::::::P         D:::::::::::::::DDL::::::::::::::::::::::L
P::::::::P         2:::::Vitamin_X::::P::VYTO::P         D::::ViZNU:::DDD  L::::::::::::::::::::::L
PPPPPPPPP PRiSTiNE 2222222222222222222PPPPPPPPP PRiSTiNE DDDDDDDDDDDDD     LLLLLLLLLLLLLLLLLLLLLLLL
                                                                                                   
                                                                                                   
                                                                                                   
_________________________  Visit us at _________________________
  
http://p2pdl.com  ____________________________  http://p2pdl.com


Special Chabbis 2013 DVDRip x264 Hindi ESubs - ViZNU


Genre: Crime | Drama | Thriller
Plot: Based on a real life group of con artists who pulled off many clever robberies during 1980's,
and robbed famous businessmen and politicians by pretending to be the CBI or Income tax officers and
conducting raids. 
Director: Neeraj Pandey
Stars: Akshay Kumar, Manoj Bajpayee, Anupam Kher.
Rated: N/a


Info: 
http://www.imdb.com/title/tt2377938/

Trailer:


Format                         : MPEG-4
File size                      : 503 MiB
Duration                       : 2h 23mn
Overall bit rate               : 489 Kbps
Video Format                   : AVC
Video Bit rate                 : 446 Kbps
Width                          : 720 pixels
Height                         : 304 pixels
Display aspect ratio           : 2.35:1
Frame rate mode                : Constant
Frame rate                     : 29.970 fps
Stream size                    : 458 MiB (91%)
Writing library                : x264 core 129 r2245
Audio Format                   : AAC
Audio Bit rate                 : 39.6 Kbps
Channel(s)                     : 2 channels
Channel positions              : Front: L R
Sampling rate                  : 48.0 KHz / 24.0 KHz
Stream size                    : 40.7 MiB (8%)
Subtitle                       : Yes(English)
Source                         : NTSC DVD9(Thanks)

Screenshots:
 
http://cdn.piczend.com/images/MdfD6xfP/1363249027_tinybayspecialchabbis20.jpg


----------------------------------------------------------------------------------------------------


Encoded using revolutionary 10bit encoding, which enables us to provide you more crispier 
and sharper images at small sizes, just make sure you follow our instructions without a fault.
Recommend to you to use latest version of VLC player. Install K-Lite Codec Pack or shark007 codecs
in case of any kind of problem in playback (For non-VLC Media Player users). Alternatively, install
Core AVC codecs, the fastest decoder that there is coupled with Community Center Codec Pack and play
on Windows Media Player Classic. 

Encoder Notes: Encoder Notes: Looking For Early Access To Anything You Can Provide DVDScr, R5, DVDR, BluRay, Direct
Audio, Music Releases and Seedboxes. We require dedicated servers, so as to do more and fast releases of movies.
If You Got anything to offer contact us at "prg@hush.com".